<svg id="visual" viewBox="0 0 900 600" width="900" height="600" xmlns="http://www.w3.org/2000/svg" xmlns:xlink="http://www.w3.org/1999/xlink" version="1.1"><g><g transform="translate(42 340)"><path d="M0 -40.2L31.4 -25L39.2 8.9L17.4 36.2L-17.4 36.2L-39.2 8.9L-31.4 -25Z" fill="#278ab7"></path></g><g transform="translate(767 80)"><path d="M0 -16L12.5 -10L15.6 3.6L6.9 14.4L-6.9 14.4L-15.6 3.6L-12.5 -10Z" fill="#278ab7"></path></g><g transform="translate(312 340)"><path d="M0 -25L19.5 -15.6L24.4 5.6L10.8 22.5L-10.8 22.5L-24.4 5.6L-19.5 -15.6Z" fill="#278ab7"></path></g><g transform="translate(720 482)"><path d="M0 -17L13.3 -10.6L16.6 3.8L7.4 15.3L-7.4 15.3L-16.6 3.8L-13.3 -10.6Z" fill="#278ab7"></path></g><g transform="translate(304 113)"><path d="M0 -33L25.8 -20.6L32.2 7.3L14.3 29.7L-14.3 29.7L-32.2 7.3L-25.8 -20.6Z" fill="#278ab7"></path></g><g transform="translate(595 228)"><path d="M0 -24L18.8 -15L23.4 5.3L10.4 21.6L-10.4 21.6L-23.4 5.3L-18.8 -15Z" fill="#278ab7"></path></g><g transform="translate(426 554)"><path d="M0 -20L15.6 -12.5L19.5 4.5L8.7 18L-8.7 18L-19.5 4.5L-15.6 -12.5Z" fill="#278ab7"></path></g><g transform="translate(424 109)"><path d="M0 -35L27.4 -21.8L34.1 7.8L15.2 31.5L-15.2 31.5L-34.1 7.8L-27.4 -21.8Z" fill="#278ab7"></path></g><g transform="translate(282 468)"><path d="M0 -15L11.7 -9.4L14.6 3.3L6.5 13.5L-6.5 13.5L-14.6 3.3L-11.7 -9.4Z" fill="#278ab7"></path></g><g transform="translate(543 161)"><path d="M0 -38L29.7 -23.7L37 8.5L16.5 34.2L-16.5 34.2L-37 8.5L-29.7 -23.7Z" fill="#278ab7"></path></g><g transform="translate(178 111)"><path d="M0 -7L5.5 -4.4L6.8 1.6L3 6.3L-3 6.3L-6.8 1.6L-5.5 -4.4Z" fill="#278ab7"></path></g><g transform="translate(119 296)"><path d="M0 -7L5.5 -4.4L6.8 1.6L3 6.3L-3 6.3L-6.8 1.6L-5.5 -4.4Z" fill="#278ab7"></path></g><g transform="translate(685 290)"><path d="M0 -23L18 -14.3L22.4 5.1L10 20.7L-10 20.7L-22.4 5.1L-18 -14.3Z" fill="#278ab7"></path></g><g transform="translate(96 553)"><path d="M0 -38L29.7 -23.7L37 8.5L16.5 34.2L-16.5 34.2L-37 8.5L-29.7 -23.7Z" fill="#278ab7"></path></g><g transform="translate(803 429)"><path d="M0 -26L20.3 -16.2L25.3 5.8L11.3 23.4L-11.3 23.4L-25.3 5.8L-20.3 -16.2Z" fill="#278ab7"></path></g><g transform="translate(134 187)"><path d="M0 -39L30.5 -24.3L38 8.7L16.9 35.1L-16.9 35.1L-38 8.7L-30.5 -24.3Z" fill="#278ab7"></path></g><g transform="translate(460 330)"><path d="M0 -18L14.1 -11.2L17.5 4L7.8 16.2L-7.8 16.2L-17.5 4L-14.1 -11.2Z" fill="#278ab7"></path></g><g transform="translate(73 65)"><path d="M0 -39L30.5 -24.3L38 8.7L16.9 35.1L-16.9 35.1L-38 8.7L-30.5 -24.3Z" fill="#278ab7"></path></g><g transform="translate(593 72)"><path d="M0 -39L30.5 -24.3L38 8.7L16.9 35.1L-16.9 35.1L-38 8.7L-30.5 -24.3Z" fill="#278ab7"></path></g><g transform="translate(370 181)"><path d="M0 -11L8.6 -6.9L10.7 2.4L4.8 9.9L-4.8 9.9L-10.7 2.4L-8.6 -6.9Z" fill="#278ab7"></path></g><g transform="translate(843 204)"><path d="M0 -11L8.6 -6.9L10.7 2.4L4.8 9.9L-4.8 9.9L-10.7 2.4L-8.6 -6.9Z" fill="#278ab7"></path></g><g transform="translate(152 408)"><path d="M0 -11L8.6 -6.9L10.7 2.4L4.8 9.9L-4.8 9.9L-10.7 2.4L-8.6 -6.9Z" fill="#278ab7"></path></g><g transform="translate(597 317)"><path d="M0 -24L18.8 -15L23.4 5.3L10.4 21.6L-10.4 21.6L-23.4 5.3L-18.8 -15Z" fill="#278ab7"></path></g></g></svg>