<svg xmlns="http://www.w3.org/2000/svg" version="1.1" xmlns:xlink="http://www.w3.org/1999/xlink" xmlns:svgjs="http://svgjs.dev/svgjs" width="1440" height="560" preserveAspectRatio="none" viewBox="0 0 1440 560"><g mask="url(&quot;#SvgjsMask1002&quot;)" fill="none"><rect width="1440" height="560" x="0" y="0" fill="#0e2a47"></rect><path d="M0,636.682C116.43,611.85,161.378,470.48,255.571,397.677C338.431,333.633,457.532,322.117,517.795,236.469C582.673,144.262,625.634,23.041,595.639,-85.64C566.117,-192.605,437.837,-232.562,365.194,-316.442C292.522,-400.355,267.07,-524.473,169.595,-577.587C64.549,-634.826,-62.955,-637.506,-180.172,-613.609C-303.699,-588.425,-428.362,-537.872,-507.308,-439.584C-585.217,-342.587,-588.384,-210.256,-603.352,-86.749C-618.002,34.132,-642.138,159.412,-593.426,271.009C-544.374,383.386,-441.147,459.681,-336.758,524.006C-233.902,587.387,-118.159,661.882,0,636.682" fill="#0b2239"></path><path d="M1440 906.236C1530.495 932.543 1621.74 1015.069 1707.859 976.796 1791.155 939.777 1789.245 819.643 1824.234 735.4739999999999 1857.843 654.625 1924.598 578.729 1909.164 492.544 1893.792 406.706 1817.614 344.26300000000003 1745.417 295.354 1683.859 253.652 1605.643 259.787 1534.361 238.63600000000002 1462.807 217.404 1400.364 171.28699999999998 1325.727 170.822 1234.567 170.25400000000002 1120.16 162.567 1065.7559999999999 235.716 1010.527 309.975 1067.627 415.33299999999997 1075.281 507.561 1081.1190000000001 577.901 1072.007 650.62 1105.353 712.828 1137.684 773.143 1197.221 811.3340000000001 1256.471 845.577 1313.409 878.4839999999999 1376.851 887.879 1440 906.236" fill="#113255"></path></g><defs><mask id="SvgjsMask1002"><rect width="1440" height="560" fill="#ffffff"></rect></mask></defs></svg>